<?xml version="1.0" encoding="utf-8"?>
<!-- Generator: Adobe Illustrator 27.5.0, SVG Export Plug-In . SVG Version: 6.00 Build 0)  -->
<svg version="1.1" xmlns="http://www.w3.org/2000/svg" xmlns:xlink="http://www.w3.org/1999/xlink" x="0px" y="0px"
	 viewBox="0 0 500 500" style="enable-background:new 0 0 500 500;" xml:space="preserve">
<g id="BACKGROUND">
	<rect style="fill:#F5FFFD;" width="500" height="500"/>
</g>
<g id="OBJECTS">
	<ellipse style="fill:#BCEBE4;" cx="250" cy="443.636" rx="217.511" ry="14.553"/>
	<g>
		<g>
			<path style="fill:#0A243D;" d="M452.558,443.638H283.683c-4.523,0-8.19-3.667-8.19-8.19V129.383c0-4.523,3.667-8.19,8.19-8.19
				h168.875c4.523,0,8.19,3.667,8.19,8.19v306.065C460.748,439.971,457.082,443.638,452.558,443.638z"/>
			<path style="fill:#10375C;" d="M437.037,443.638H268.161c-4.523,0-8.19-3.667-8.19-8.19V129.383c0-4.523,3.667-8.19,8.19-8.19
				h168.875c4.523,0,8.19,3.667,8.19,8.19v306.065C445.227,439.971,441.56,443.638,437.037,443.638z"/>
			<path style="fill:#DEDFFF;" d="M437.18,136.48v269.24c0,2.38-1.93,4.3-4.31,4.3H272.32c-0.48,0-0.93-0.08-1.36-0.22
				c-1.71-0.56-2.94-2.17-2.94-4.08V136.48c0-2.37,1.93-4.3,4.3-4.3h160.55C435.25,132.18,437.18,134.11,437.18,136.48z"/>
			<path style="fill:#1C1D4A;" d="M376.756,128.959h-48.314c-1.077,0-1.95-0.873-1.95-1.95l0,0c0-1.077,0.873-1.95,1.95-1.95h48.314
				c1.077,0,1.95,0.873,1.95,1.95l0,0C378.706,128.086,377.833,128.959,376.756,128.959z"/>
			<circle style="fill:#0A243D;" cx="353.957" cy="427.17" r="13.447"/>
		</g>
		<g>
			<path style="fill:#F4F6FF;" d="M420.326,311.881H284.873c-3.811,0-6.9-3.089-6.9-6.9V169.529c0-3.811,3.089-6.9,6.9-6.9h135.453
				c3.811,0,6.9,3.089,6.9,6.9v135.452C427.225,308.792,424.136,311.881,420.326,311.881z"/>
			<g>
				<rect x="308.284" y="286.65" style="fill:#F39523;" width="11.106" height="2.831"/>
				<rect x="385.809" y="286.65" style="fill:#F39523;" width="11.106" height="2.831"/>
				<path style="fill:#F3AE23;" d="M383.177,258.848h-61.156c-6.725,0-12.177-5.452-12.177-12.177v-53.462
					c0-6.725,5.452-12.177,12.177-12.177h61.156c6.725,0,12.177,5.452,12.177,12.177v53.462
					C395.354,253.396,389.902,258.848,383.177,258.848z"/>
				<rect x="321.35" y="243.314" style="fill:#F39523;" width="62.499" height="24.679"/>
				<g>
					<path style="fill:#F3C623;" d="M320.86,287.303h-14.046c-2.055,0-3.72-1.666-3.72-3.72v-45.985c0-2.055,1.666-3.72,3.72-3.72
						h14.046c2.055,0,3.72,1.666,3.72,3.72v45.985C324.58,285.637,322.914,287.303,320.86,287.303z"/>
					<path style="fill:#F3C623;" d="M398.385,287.303h-14.046c-2.055,0-3.72-1.666-3.72-3.72v-45.985c0-2.055,1.666-3.72,3.72-3.72
						h14.046c2.055,0,3.72,1.666,3.72,3.72v45.985C402.105,285.637,400.439,287.303,398.385,287.303z"/>
				</g>
				<rect x="324.58" y="267.993" style="fill:#F3AE23;" width="56.039" height="10.889"/>
			</g>
			<g>
				<path style="fill:#F4F6FF;" d="M414.854,343.901H293.059c-1.491,0-2.7-1.209-2.7-2.7v-13.799c0-1.491,1.209-2.7,2.7-2.7h121.795
					c1.491,0,2.7,1.209,2.7,2.7v13.799C417.554,342.692,416.346,343.901,414.854,343.901z"/>
				<path style="fill:#F4F6FF;" d="M415.304,358.975H292.609c-1.243,0-2.25-1.007-2.25-2.25l0,0c0-1.243,1.007-2.25,2.25-2.25
					h122.695c1.243,0,2.25,1.007,2.25,2.25l0,0C417.554,357.968,416.547,358.975,415.304,358.975z"/>
				<path style="fill:#F4F6FF;" d="M415.304,370.45H292.609c-1.243,0-2.25-1.007-2.25-2.25l0,0c0-1.243,1.007-2.25,2.25-2.25
					h122.695c1.243,0,2.25,1.007,2.25,2.25l0,0C417.554,369.442,416.547,370.45,415.304,370.45z"/>
				<path style="fill:#F4F6FF;" d="M415.304,381.924H292.609c-1.243,0-2.25-1.007-2.25-2.25l0,0c0-1.243,1.007-2.25,2.25-2.25
					h122.695c1.243,0,2.25,1.007,2.25,2.25l0,0C417.554,380.917,416.547,381.924,415.304,381.924z"/>
				<path style="fill:#F4F6FF;" d="M415.304,393.399H292.609c-1.243,0-2.25-1.007-2.25-2.25l0,0c0-1.243,1.007-2.25,2.25-2.25
					h122.695c1.243,0,2.25,1.007,2.25,2.25l0,0C417.554,392.391,416.547,393.399,415.304,393.399z"/>
			</g>
		</g>
		<g style="opacity:0.3;">
			<path style="fill:#FFFFFF;" d="M437.18,136.48v2.53L277.74,410.02h-5.42c-0.48,0-0.93-0.08-1.36-0.22
				c-1.71-0.56-2.94-2.17-2.94-4.08v-48.7L400.3,132.18h32.57C435.25,132.18,437.18,134.11,437.18,136.48z"/>
			<polygon style="fill:#FFFFFF;" points="437.18,158.19 437.18,182.52 303.34,410.02 289.02,410.02 			"/>
			<polygon style="fill:#FFFFFF;" points="388.55,132.18 268.017,337.071 268.017,297.099 365.039,132.18 			"/>
		</g>
	</g>
	<g>
		<path style="opacity:0.6;fill:#BCEBE4;" d="M352.842,167.384H162.506c-1.972,0-3.571-1.599-3.571-3.571V59.933
			c0-1.972,1.599-3.571,3.571-3.571h190.336c1.972,0,3.571,1.599,3.571,3.571v103.88
			C356.412,165.785,354.814,167.384,352.842,167.384z"/>
		<g>
			<path style="fill:#F39523;" d="M311.478,110.95v33.309c0,0.58-0.471,1.051-1.052,1.051h-30.825c-0.58,0-1.052-0.471-1.052-1.051
				V110.95c0-0.58,0.471-1.051,1.052-1.051h30.825C311.006,109.899,311.478,110.37,311.478,110.95z"/>
			<path style="fill:#FFCC8F;" d="M311.478,110.95v11.94h-24.374v-12.992h23.323C311.007,109.899,311.478,110.369,311.478,110.95z"
				/>
			<path style="fill:#F3C623;" d="M280.111,145.31h-9.235c-0.58,0-1.051-0.471-1.051-1.051v-33.31c0-0.58,0.47-1.051,1.051-1.051
				h9.235c0.58,0,1.051,0.47,1.051,1.051v33.31C281.162,144.84,280.691,145.31,280.111,145.31z"/>
			<path style="fill:#E37521;" d="M341.703,122.191h-8.312c-0.835,0-1.513-0.677-1.513-1.513V78.037
				c0-0.835,0.677-1.513,1.513-1.513h8.312c0.835,0,1.513,0.677,1.513,1.513v42.641
				C343.216,121.513,342.538,122.191,341.703,122.191z"/>
			<path style="fill:#F3AE23;" d="M335.149,78.625v42.165c0,1.162-0.941,2.103-2.097,2.103h-42.165
				c-1.163,0-2.103-0.941-2.103-2.103V78.625c0-1.157,0.94-2.097,2.103-2.097h42.165C334.209,76.527,335.149,77.468,335.149,78.625z
				"/>
			<path style="fill:#FFCC8F;" d="M343.216,108.183v14.709h-43.367v-13.628c0-0.597,0.484-1.081,1.081-1.081H343.216z"/>
			<path style="fill:#DE5C20;" d="M322.755,135.919v3.259c0,0.513-0.415,0.924-0.924,0.924h-39.745
				c-0.509,0-0.924-0.412-0.924-0.924v-3.259c0-0.513,0.415-0.928,0.924-0.928h39.745
				C322.34,134.991,322.755,135.406,322.755,135.919z"/>
			<path style="fill:#FFCC8F;" d="M322.755,135.919v0.984h-41.594v-0.984c0-0.513,0.415-0.928,0.924-0.928h39.745
				C322.34,134.991,322.755,135.406,322.755,135.919z"/>
			<path style="fill:#DE5C20;" d="M321.093,134.992h-38.031c-1.05,0-1.901-0.851-1.901-1.901v-9.382c0-1.05,0.851-1.901,1.901-1.901
				h38.031c1.05,0,1.901,0.851,1.901,1.901v9.382C322.994,134.141,322.143,134.992,321.093,134.992z"/>
			<path style="fill:#F39523;" d="M342.165,145.31h-30.826c-0.58,0-1.051-0.471-1.051-1.051v-33.31c0-0.58,0.471-1.051,1.051-1.051
				h30.826c0.58,0,1.051,0.47,1.051,1.051v33.31C343.216,144.84,342.745,145.31,342.165,145.31z"/>
			<path style="fill:#F3C623;" d="M311.848,145.31h-9.235c-0.58,0-1.051-0.471-1.051-1.051v-33.31c0-0.58,0.471-1.051,1.051-1.051
				h9.235c0.58,0,1.051,0.47,1.051,1.051v33.31C312.899,144.84,312.429,145.31,311.848,145.31z"/>
			<rect x="272.289" y="145.31" style="fill:#F39523;" width="6.408" height="1.911"/>
			<rect x="304.027" y="145.31" style="fill:#F39523;" width="6.408" height="1.911"/>
			<rect x="333.579" y="145.31" style="fill:#F39523;" width="6.408" height="1.911"/>
		</g>
		<g>
			<path style="fill:#F4F6FF;" d="M255.914,90.489H172.77c-0.972,0-1.759-0.788-1.759-1.759V75.776c0-0.971,0.788-1.759,1.759-1.759
				h83.145c0.972,0,1.759,0.788,1.759,1.759v12.953C257.674,89.701,256.886,90.489,255.914,90.489z"/>
			<path style="fill:#F4F6FF;" d="M256.294,100.714H172.39c-0.762,0-1.38-0.618-1.38-1.38l0,0c0-0.762,0.618-1.38,1.38-1.38h83.904
				c0.762,0,1.38,0.618,1.38,1.38l0,0C257.674,100.097,257.056,100.714,256.294,100.714z"/>
			<path style="fill:#F4F6FF;" d="M256.294,110.517H172.39c-0.762,0-1.38-0.618-1.38-1.38l0,0c0-0.762,0.618-1.38,1.38-1.38h83.904
				c0.762,0,1.38,0.618,1.38,1.38l0,0C257.674,109.899,257.056,110.517,256.294,110.517z"/>
			<path style="fill:#F4F6FF;" d="M256.294,120.32H172.39c-0.762,0-1.38-0.618-1.38-1.38l0,0c0-0.762,0.618-1.38,1.38-1.38h83.904
				c0.762,0,1.38,0.618,1.38,1.38l0,0C257.674,119.702,257.056,120.32,256.294,120.32z"/>
			<path style="fill:#F4F6FF;" d="M256.294,130.123H172.39c-0.762,0-1.38-0.618-1.38-1.38l0,0c0-0.762,0.618-1.38,1.38-1.38h83.904
				c0.762,0,1.38,0.618,1.38,1.38l0,0C257.674,129.505,257.056,130.123,256.294,130.123z"/>
			<path style="fill:#F4F6FF;" d="M256.294,139.926H172.39c-0.762,0-1.38-0.618-1.38-1.38l0,0c0-0.762,0.618-1.38,1.38-1.38h83.904
				c0.762,0,1.38,0.618,1.38,1.38l0,0C257.674,139.308,257.056,139.926,256.294,139.926z"/>
			<path style="fill:#F4F6FF;" d="M256.294,149.728H172.39c-0.762,0-1.38-0.618-1.38-1.38l0,0c0-0.762,0.618-1.38,1.38-1.38h83.904
				c0.762,0,1.38,0.618,1.38,1.38l0,0C257.674,149.111,257.056,149.728,256.294,149.728z"/>
		</g>
	</g>
	<g>
		<g>
			<path style="fill:#127681;" d="M231.513,375.297c-1.063-6.444-2.821-12.85-6.04-18.532c-3.22-5.683-8-10.624-13.988-13.234
				c-5.987-2.61-13.224-2.664-18.875,0.612c-7.114,4.123-10.653,12.848-10.373,21.066c0.28,8.217,3.811,15.99,8.089,23.011
				c7.647,12.551,17.905,23.503,29.929,31.953c1.17,0.822,2.4,1.639,3.804,1.909c5.855,1.124,6.667-11.274,7.338-15.202
				c1.132-6.622,1.567-13.364,1.292-20.077C232.533,382.949,232.141,379.104,231.513,375.297z"/>
			<path style="fill:#0D6069;" d="M228.152,440.903c-0.265-11.101-2-22.103-4.602-32.884c-2.616-10.838-6.114-21.442-9.913-31.917
				c-2.158-5.952-4.417-11.868-6.681-17.781c-0.662-1.73-3.382-0.783-2.718,0.952c3.973,10.377,7.934,20.765,11.356,31.339
				c3.38,10.441,6.246,21.075,7.964,31.925c0.974,6.155,1.575,12.367,1.723,18.598C225.325,442.988,228.196,442.754,228.152,440.903
				z"/>
			<path style="fill:#1C9CAB;" d="M233.15,377.714c3.029-6.715,7.047-13.291,13.182-17.369c6.134-4.078,14.782-5.064,20.749-0.743
				c4.604,3.334,6.856,9.228,6.916,14.912c0.06,5.684-1.804,11.216-4.087,16.422c-6.676,15.223-17.184,28.748-30.284,38.979
				c-2.633,2.057-5.427,4.012-8.611,5.025c-5.485,1.745-6.702-3.659-6.929-7.842c-0.669-12.35,1.008-24.733,4.395-36.608
				C229.725,386.126,231.284,381.851,233.15,377.714z"/>
			<path style="fill:#0D6069;" d="M259.4,365.477c-0.736-0.43-1.502-0.108-1.97,0.517c-6.388,8.528-11.991,17.635-16.722,27.183
				c-4.738,9.562-8.627,19.554-11.574,29.811c-1.665,5.795-3.023,11.674-4.079,17.61c-0.136,0.765,0.207,1.552,1.006,1.771
				c0.696,0.191,1.634-0.236,1.771-1.006c1.857-10.439,4.662-20.703,8.379-30.634c3.691-9.861,8.293-19.379,13.708-28.409
				c3.074-5.126,6.414-10.089,9.997-14.873C260.383,366.824,260.017,365.837,259.4,365.477z"/>
		</g>
		<g>
			<path style="fill:#1C9CAB;" d="M100.064,412.761c-0.809-2.625-2.654-5.036-5.227-5.997c-2.573-0.961-6.188-0.313-7.625,2.028
				c1.622-2.66,3.144-5.423,3.968-8.428c0.824-3.005,0.903-6.3-0.317-9.167c-1.22-2.867-3.881-5.21-6.978-5.548
				c-3.097-0.338-6.747,1.392-7.455,4.426c-0.397-4.175-0.804-8.4-2.212-12.351c-1.408-3.951-3.944-7.662-7.652-9.62
				c-3.709-1.959-8.68-1.798-11.744,1.066c-2.469,2.308-3.344,5.919-3.17,9.295c0.31,6.023,3.745,11.799,8.889,14.947
				c-2.771-1.29-6.3-0.02-8.096,2.453c-1.796,2.473-2.031,5.838-1.191,8.777c1.332,4.662,5.379,8.376,10.061,9.536
				c-2.65,0.185-5.242,1.984-6.415,4.443c-1.56,3.271-0.944,7.269,0.846,10.42c1.789,3.151,4.611,5.582,7.544,7.709
				c3.961,2.874,8.317,5.353,13.099,6.393c4.782,1.04,10.055,0.506,14.105-2.243c5.804-3.94,8.788-13.041,9.852-19.975
				C100.763,418.211,100.873,415.386,100.064,412.761z"/>
			<path style="fill:#0D6069;" d="M86.563,436.464c-2.08-9.312-4.806-18.47-8.107-27.417c0.067-0.057,0.132-0.12,0.189-0.2
				c3.28-4.567,5.668-9.741,7.033-15.195c0.312-1.249-1.616-1.782-1.929-0.532c-1.225,4.895-3.302,9.505-6.121,13.678
				c-2.318-6.071-4.905-12.039-7.767-17.877c-2.126-4.336-4.405-8.595-6.82-12.777c-0.643-1.114-2.372-0.108-1.727,1.009
				c8.374,14.504,15.026,29.969,19.757,46.037c0.585,1.988,1.135,3.986,1.661,5.991c-5.664-0.506-11.165-2.217-16.118-5.019
				c-1.122-0.634-2.131,1.093-1.009,1.727c5.423,3.067,11.446,4.876,17.654,5.343c0.482,1.915,0.945,3.835,1.375,5.762
				C84.915,438.251,86.844,437.72,86.563,436.464z"/>
		</g>
	</g>
	<g>
		<g>
			<g>
				<g>
					<g>
						<path style="fill:#F3C623;" d="M167.846,440.955l0.043,0.281c0.042,0.417,0.094,0.817,0.17,1.251
							c0.085,0.357,0.153,0.749,0.23,1.149h42.939c0,0,0.068-0.443,0.068-1.141c-0.017-0.357-0.042-0.775-0.119-1.26
							c-0.017-0.085-0.025-0.187-0.06-0.281c-0.468-2.417-2.23-5.754-8.094-6.826c-0.281-0.068-0.579-0.102-0.902-0.145h-0.025
							c-0.46-0.068-0.919-0.111-1.413-0.153c-0.162-0.009-0.324-0.026-0.485-0.034c-11.745-0.919-16.946-4.86-16.946-4.86
							s-6.809,1.362-13.192,0c0,0-0.749,1.242-1.413,3.404c-0.102,0.366-0.213,0.757-0.315,1.174
							c-0.026,0.077-0.043,0.162-0.068,0.255c-0.043,0.162-0.077,0.349-0.111,0.536c-0.008,0.051-0.025,0.119-0.025,0.17
							c0,0.043-0.026,0.06-0.026,0.094c-0.17,0.885-0.298,1.855-0.349,2.902C167.701,438.563,167.71,439.729,167.846,440.955z"/>
						<path style="fill:#F3AE23;" d="M167.846,440.955l0.043,0.281c0.042,0.417,0.094,0.817,0.17,1.251
							c0.085,0.357,0.153,0.749,0.23,1.149h10.835c0.264-3.09-1.149-6.264-3.481-8.332c-1.932-1.711-4.426-2.681-6.996-2.962
							c-0.102,0.366-0.213,0.757-0.315,1.174c-0.026,0.077-0.043,0.162-0.068,0.255c-0.043,0.162-0.077,0.349-0.111,0.536
							c-0.008,0.051-0.025,0.119-0.025,0.17c0,0.043-0.026,0.06-0.026,0.094c-0.17,0.885-0.298,1.855-0.349,2.902
							C167.701,438.563,167.71,439.729,167.846,440.955z"/>
						<path style="fill:#FFFFFF;" d="M187.513,429.285c-0.146-0.134-0.338-0.234-0.543-0.225c-0.216,0.01-0.374,0.091-0.543,0.225
							c-0.118,0.094-0.237,0.186-0.355,0.279c-0.566,0.436-1.142,0.86-1.728,1.27c-0.167,0.117-0.297,0.257-0.353,0.459
							c-0.051,0.184-0.028,0.428,0.077,0.591c0.21,0.326,0.698,0.521,1.05,0.275c0.816-0.571,1.613-1.169,2.394-1.789
							c0.144-0.114,0.225-0.368,0.225-0.543C187.738,429.64,187.654,429.415,187.513,429.285z"/>
						<path style="fill:#FFFFFF;" d="M190.553,430.652c-0.287-0.264-0.806-0.325-1.085,0c-0.562,0.654-1.189,1.248-1.868,1.778
							c-0.109,0.082-0.218,0.164-0.329,0.243c-0.167,0.118-0.297,0.256-0.353,0.459c-0.051,0.184-0.028,0.428,0.077,0.591
							c0.209,0.324,0.699,0.523,1.05,0.275c0.923-0.653,1.771-1.403,2.508-2.26c0.135-0.157,0.225-0.33,0.225-0.543
							C190.778,431.007,190.694,430.782,190.553,430.652z"/>
						<path style="fill:#FFFFFF;" d="M193.347,431.644c-0.146-0.134-0.338-0.234-0.543-0.225c-0.188,0.009-0.421,0.068-0.543,0.225
							l-1.741,2.238c-0.131,0.168-0.225,0.32-0.225,0.543c0,0.188,0.084,0.413,0.225,0.543c0.146,0.134,0.338,0.234,0.543,0.225
							c0.188-0.008,0.421-0.068,0.543-0.225l1.741-2.238c0.131-0.168,0.225-0.32,0.225-0.543
							C193.572,431.999,193.488,431.774,193.347,431.644z"/>
						<path style="fill:#FFFFFF;" d="M196.446,432.368c-0.368-0.194-0.834-0.095-1.05,0.275c-0.388,0.664-0.776,1.327-1.164,1.991
							c-0.203,0.347-0.091,0.856,0.275,1.05c0.368,0.194,0.834,0.095,1.05-0.275c0.388-0.663,0.776-1.327,1.163-1.991
							C196.924,433.071,196.813,432.561,196.446,432.368z"/>
						<path style="fill:#FFFFFF;" d="M167.883,441.241c0.05,0.405,0.099,0.818,0.182,1.24c0.074,0.372,0.141,0.76,0.231,1.157
							h42.929c0,0,0.074-0.438,0.074-1.141c-0.017-0.364-0.041-0.785-0.124-1.256H167.883z"/>
					</g>
					<g>
						<path style="fill:#F3C623;" d="M123.118,440.955l-0.043,0.281c-0.043,0.417-0.094,0.817-0.17,1.251
							c-0.085,0.357-0.153,0.749-0.23,1.149H79.736c0,0-0.068-0.443-0.068-1.141c0.017-0.357,0.042-0.775,0.119-1.26
							c0.017-0.085,0.025-0.187,0.06-0.281c0.468-2.417,2.23-5.754,8.094-6.826c0.281-0.068,0.579-0.102,0.902-0.145h0.026
							c0.46-0.068,0.919-0.111,1.413-0.153c0.162-0.009,0.324-0.026,0.485-0.034c11.745-0.919,16.946-4.86,16.946-4.86
							s6.809,1.362,13.192,0c0,0,0.749,1.242,1.413,3.404c0.102,0.366,0.213,0.757,0.315,1.174c0.026,0.077,0.043,0.162,0.068,0.255
							c0.043,0.162,0.077,0.349,0.111,0.536c0.008,0.051,0.025,0.119,0.025,0.17c0,0.043,0.026,0.06,0.026,0.094
							c0.17,0.885,0.298,1.855,0.349,2.902C123.262,438.563,123.254,439.729,123.118,440.955z"/>
						<path style="fill:#F3AE23;" d="M123.118,440.955l-0.043,0.281c-0.043,0.417-0.094,0.817-0.17,1.251
							c-0.085,0.357-0.153,0.749-0.23,1.149H111.84c-0.264-3.09,1.149-6.264,3.481-8.332c1.932-1.711,4.426-2.681,6.996-2.962
							c0.102,0.366,0.213,0.757,0.315,1.174c0.026,0.077,0.043,0.162,0.068,0.255c0.043,0.162,0.077,0.349,0.111,0.536
							c0.008,0.051,0.025,0.119,0.025,0.17c0,0.043,0.026,0.06,0.026,0.094c0.17,0.885,0.298,1.855,0.349,2.902
							C123.262,438.563,123.254,439.729,123.118,440.955z"/>
						<path style="fill:#FFFFFF;" d="M103.45,429.285c0.146-0.134,0.338-0.234,0.543-0.225c0.216,0.01,0.374,0.091,0.543,0.225
							c0.118,0.094,0.237,0.186,0.355,0.279c0.566,0.436,1.142,0.86,1.728,1.27c0.167,0.117,0.297,0.257,0.353,0.459
							c0.051,0.184,0.028,0.428-0.077,0.591c-0.21,0.326-0.698,0.521-1.05,0.275c-0.816-0.571-1.613-1.169-2.394-1.789
							c-0.144-0.114-0.225-0.368-0.225-0.543C103.225,429.64,103.309,429.415,103.45,429.285z"/>
						<path style="fill:#FFFFFF;" d="M100.41,430.652c0.287-0.264,0.806-0.325,1.085,0c0.562,0.654,1.189,1.248,1.868,1.778
							c0.109,0.082,0.218,0.164,0.329,0.243c0.166,0.118,0.297,0.256,0.353,0.459c0.051,0.184,0.028,0.428-0.077,0.591
							c-0.209,0.324-0.699,0.523-1.05,0.275c-0.923-0.653-1.771-1.403-2.508-2.26c-0.135-0.157-0.225-0.33-0.225-0.543
							C100.186,431.007,100.269,430.782,100.41,430.652z"/>
						<path style="fill:#FFFFFF;" d="M97.616,431.644c0.146-0.134,0.338-0.234,0.543-0.225c0.188,0.009,0.421,0.068,0.543,0.225
							l1.741,2.238c0.131,0.168,0.225,0.32,0.225,0.543c0,0.188-0.084,0.413-0.225,0.543c-0.146,0.134-0.338,0.234-0.543,0.225
							c-0.188-0.008-0.421-0.068-0.543-0.225l-1.741-2.238c-0.131-0.168-0.225-0.32-0.225-0.543
							C97.392,431.999,97.475,431.774,97.616,431.644z"/>
						<path style="fill:#FFFFFF;" d="M94.517,432.368c0.368-0.194,0.834-0.095,1.05,0.275c0.388,0.664,0.776,1.327,1.164,1.991
							c0.203,0.347,0.091,0.856-0.275,1.05c-0.368,0.194-0.834,0.095-1.05-0.275c-0.388-0.663-0.776-1.327-1.163-1.991
							C94.039,433.071,94.151,432.561,94.517,432.368z"/>
						<path style="fill:#FFFFFF;" d="M123.081,441.241c-0.05,0.405-0.099,0.818-0.182,1.24c-0.074,0.372-0.141,0.76-0.231,1.157
							H79.738c0,0-0.074-0.438-0.074-1.141c0.017-0.364,0.041-0.785,0.124-1.256H123.081z"/>
					</g>
					<path style="fill:#FFA785;" d="M107.712,428.937c0,0-13.22-116.067-9.275-165.832h32.217c0,0-4.523,78.403-9.75,165.832
						C120.905,428.937,115.31,430.238,107.712,428.937z"/>
				</g>
				<path style="fill:#FFA785;" d="M130.654,263.105c12.576,43.53,39.404,165.832,39.404,165.832s7.659,2.014,13.192,0
					c0,0-6.722-91.254-17.499-165.832H130.654z"/>
			</g>
		</g>
		<path style="fill:#0A243D;" d="M95.486,261.712c0,0,1.033,76.797,7.739,158.694c0,0,9.706,2.55,22.455,0l6.979-138.18
			l29.92,137.28c0,0,12.926,2.55,24.312-0.15c0,0-9.626-127.945-18.626-155.394L95.486,261.712z"/>
		<g>
			<g>
				<path style="fill:#FFA785;" d="M224.966,132.764c-0.689-1.751,0.797-3.685,0.52-5.637c-0.277-1.952-2.548-5.749-0.711-6.902
					c2.052-1.288,5.022,4.665,5.022,4.665s8.233-10.465,10.242-9.39c1.734,0.928-3.717,9.044-3.717,9.044s3.962,1.724,3.416,6.002
					c-0.507,3.969-5.536,6.46-5.536,6.46L224.966,132.764z"/>
				<path style="fill:#F3C623;" d="M145.144,159.515c27.764,4.605,55.43,9.078,56.284,9.05s20.174-36.336,21.374-36.936
					c3.036-1.518,11.924,2.132,12.674,5.442c0.262,1.158-17.954,50.263-28.738,53.282c-13.588,3.803-46.192-0.86-46.192-0.86
					L145.144,159.515z"/>
			</g>
			<g>
				<g>
					<g>
						<g>
							<g>
								<g>
									<g>
										<g>
											<g>
												<path style="fill:#F4F6FF;" d="M93.104,270.89c1.219,2.578,41.864,10.95,75.079,0.09
													c1.165-0.381-10.36-107.06-10.36-107.06l-12.935-4.493l-12.892-0.265l-13.509,3.281
													C118.487,162.442,91.138,266.732,93.104,270.89z"/>
											</g>
										</g>
									</g>
								</g>
							</g>
						</g>
					</g>
				</g>
			</g>
			<path style="fill:#0C5063;" d="M147.055,275.136v7.087c0,0,10.8,0.263,25.949-4.837l-1.2-6.3L147.055,275.136z"/>
			<path style="fill:#127681;" d="M145.878,159.637l-0.998,118.124c0,0,16.499,0.102,28.799-5.499L157.72,161.593L145.878,159.637z"
				/>
			<path style="fill:#F3C623;" d="M159.678,193c0,4.935-2.552,8.936-5.699,8.936c-3.148,0-5.699-4.001-5.699-8.936
				s2.552-8.936,5.699-8.936C157.126,184.064,159.678,188.065,159.678,193z"/>
			<path style="fill:#0C5063;" d="M92.542,271.536l-1.285,6.225c0,0,6.3,4.462,30.768,4.462l0.338-6.581L92.542,271.536z"/>
			<path style="fill:#127681;" d="M130.635,159.492c0,0-5.854,109.119-6.154,118.269c0,0-22.349-0.3-33.749-4.8
				c0,0,15.761-72.395,27.755-110.519L130.635,159.492z"/>
			<g>
				<path style="fill:#FFA785;" d="M104.422,255.718c0.996,0.326,1.113,1.673,2.693,2.349c1.58,0.675,4.528,0.344,5.578,1.18
					c1.05,0.836,7.059,8.688,5.211,9.874c-1.848,1.187-4.197-3.776-4.341-3.777c-0.145-0.001,3.128,6.035,1.516,6.855
					c-1.611,0.82-4.457-6.589-4.647-6.551c-0.19,0.038,1.558,5.973-0.096,6.379c-1.655,0.406-2.768-5.521-2.947-5.555
					c-0.179-0.035,0.406,4.535-0.793,4.586c-1.2,0.051-1.976-5.661-2.245-5.713c-0.269-0.052-2.875,0.602-4.786-0.257
					c-1.91-0.859-3.522-5.095-2.604-6.44C97.877,257.303,103.126,255.294,104.422,255.718z"/>
			</g>
			<path style="fill:#F3C623;" d="M118.487,162.442c-16.554,4.473-50.077,34.622-49.177,47.222
				c0.9,12.6,26.624,54.298,26.624,54.298s9.498-1.312,12.975-6.937c0,0-19.058-45.336-18.833-47.023
				c0.225-1.687,19.68-13.625,19.68-13.625C126.288,176.59,118.487,162.442,118.487,162.442z"/>
		</g>
		<g>
			<g>
				<path d="M127.753,142.582c-2.704-1.278-4.736-3.709-6.039-6.401c-1.303-2.692-1.945-5.651-2.464-8.596
					c-0.31-1.759-0.58-3.569-0.24-5.323c0.339-1.754,1.402-3.468,3.065-4.121c0.295-3.098,1.722-5.586,4.125-7.564
					c2.402-1.978,5.334-3.208,8.307-4.129c3.705-1.148,7.545-1.858,11.415-2.112c3.973-0.26,8.295,0.08,11.343,2.641
					c1.882,1.582,3.092,3.938,3.282,6.388c0.19,2.451-0.644,4.965-2.26,6.817c1.659,1.46,2.475,3.878,2.174,6.066
					c-0.301,2.189-1.492,4.186-3.039,5.763c-1.547,1.577-3.438,2.773-5.374,3.838C144.836,139.821,135.196,146.101,127.753,142.582z
					"/>
				<path style="fill:#FFA785;" d="M126.378,140.038c0,0,5.083,9.645,5.686,22.712c2.942,5.827,10.91,4.645,12.687-0.744
					c-0.289-4.967,0.496-7.331,2.017-9.1c0.124-0.149,0.248-0.281,0.38-0.421c0.091-0.099,0.182-0.19,0.281-0.281
					c0.182-0.182,0.389-0.347,0.587-0.529c1.372-1.182,3.099-2.298,5.058-4.174c2.298-2.182,3.959-5.133,4.48-9.703
					c0.008-0.066,0.016-0.132,0.025-0.198c0.008-0.116,0.016-0.223,0.025-0.339c0.008-0.05,0.008-0.099,0.017-0.149
					c0.364-4.372-0.24-10.174-2.223-18.142c-2.058-8.265-22.423-10.662-27.548,0.19C125.742,123.64,126.378,140.038,126.378,140.038
					z"/>
				<path d="M155.449,116.399c-0.34,1.089-1.077,2.026-1.969,2.738c-0.892,0.712-1.934,1.213-3,1.618
					c-5.425,2.059-11.739,1.632-16.837-1.139c0.303,0.964-0.034,2.127-0.643,2.933c-0.609,0.806-1.62,1.292-2.63,1.263
					c0.56,2.591,0.429,5.345-0.47,7.839c-0.899,2.494-2.511,4.727-4.596,6.365c-0.741-2.92-1.392-5.671-1.684-8.669
					c-0.292-2.998-0.117-6.088,0.937-8.91c1.395-3.735,4.307-6.826,7.826-8.7c3.52-1.873,7.61-2.566,11.585-2.249
					c2.423,0.193,4.844,0.762,6.981,1.922C153.083,112.568,154.461,114.178,155.449,116.399z"/>
				<g>
					<g>
						<path d="M141.102,134.613c0.042,0.713,0.654,1.258,1.368,1.216c0.713-0.042,1.258-0.654,1.216-1.368
							c-0.042-0.713-0.654-1.258-1.368-1.215C141.604,133.287,141.06,133.9,141.102,134.613z"/>
						<path style="fill:#FFFFFF;" d="M142.372,134.183c0.015,0.261,0.24,0.461,0.501,0.445c0.261-0.015,0.461-0.24,0.445-0.501
							c-0.015-0.261-0.24-0.46-0.501-0.445S142.357,133.922,142.372,134.183z"/>
					</g>
					<g>
						<path d="M151.092,134.024c0.042,0.713,0.655,1.258,1.368,1.216c0.713-0.042,1.257-0.654,1.215-1.368
							c-0.042-0.713-0.654-1.258-1.368-1.215C151.595,132.698,151.05,133.311,151.092,134.024z"/>
						<path style="fill:#FFFFFF;" d="M152.363,133.594c0.015,0.261,0.24,0.461,0.501,0.445c0.261-0.015,0.46-0.24,0.445-0.501
							c-0.015-0.261-0.24-0.461-0.501-0.445C152.547,133.109,152.348,133.333,152.363,133.594z"/>
					</g>
					<g>
						<path style="fill:#8E4136;" d="M144.967,140.307c0.35-0.648,1.455-0.085,2.719-0.085c1.264,0,2.369-0.563,2.719,0.085
							c0.443,0.82-0.648,2.857-2.719,2.857C145.615,143.164,144.524,141.126,144.967,140.307z"/>
						<path style="fill:#C16B5B;" d="M145.144,141.662c0.396-0.051,0.818-0.082,1.264-0.082c1.472,0,2.731,0.302,3.319,0.736
							c-0.483,0.48-1.169,0.848-2.041,0.848C146.442,143.164,145.561,142.427,145.144,141.662z"/>
						<path style="fill:#FFFFFF;" d="M147.687,140.932c-1.129,0-2.088-0.268-2.438-0.877c0.499-0.201,1.417,0.166,2.438,0.166
							c1.022,0,1.939-0.367,2.438-0.166C149.774,140.665,148.815,140.932,147.687,140.932z"/>
					</g>
					<path style="fill:#CC7656;" d="M149.694,137.621c0.073-0.004,0.137-0.056,0.155-0.131c0.255-1.12-0.142-1.473-0.519-1.57
						c-0.383-0.098-0.827,0.025-1.321,0.371c-0.076,0.053-0.095,0.159-0.041,0.236c0.055,0.076,0.161,0.093,0.236,0.041
						c0.407-0.286,0.758-0.395,1.041-0.321c0.339,0.087,0.431,0.481,0.275,1.168c-0.02,0.09,0.036,0.181,0.128,0.202
						C149.662,137.621,149.679,137.622,149.694,137.621z"/>
				</g>
				<path d="M154.364,128.7c-1.611-0.723-3.495-0.663-5.014,0.272c-0.372,0.229-0.548,0.758-0.3,1.143
					c0.241,0.373,0.744,0.545,1.143,0.3c0.153-0.094,0.31-0.174,0.471-0.254c0.016-0.007,0.013-0.006,0.023-0.01
					c0.029-0.011,0.058-0.023,0.087-0.034c0.063-0.023,0.126-0.045,0.19-0.065c0.17-0.054,0.343-0.098,0.519-0.132
					c0.044-0.008,0.326-0.078,0.109-0.021c0.072-0.019,0.159-0.016,0.233-0.021c0.167-0.011,0.335-0.013,0.502-0.005
					c0.089,0.004,0.178,0.013,0.267,0.02c0.01,0.001,0.013,0.001,0.02,0.001c0.013,0.003,0.03,0.006,0.056,0.01
					c0.165,0.029,0.328,0.066,0.488,0.113c0.085,0.025,0.17,0.053,0.254,0.084c0.033,0.012,0.066,0.025,0.099,0.038
					c0.006,0.003,0.003,0.001,0.011,0.005c0.002,0.001,0.005,0.001,0.007,0.002c0.003,0.001,0.005,0.002,0.008,0.003
					c-0.003-0.001-0.002-0.001-0.005-0.002c0.396,0.174,0.909,0.122,1.133-0.302C154.856,129.478,154.789,128.891,154.364,128.7z"/>
				<path d="M144.592,128.7c-1.611-0.723-3.495-0.663-5.014,0.272c-0.372,0.229-0.548,0.758-0.299,1.143
					c0.241,0.373,0.745,0.545,1.143,0.3c0.153-0.094,0.31-0.174,0.471-0.254c0.016-0.007,0.013-0.006,0.023-0.01
					c0.029-0.011,0.058-0.023,0.087-0.034c0.063-0.023,0.126-0.045,0.19-0.065c0.17-0.054,0.343-0.098,0.519-0.132
					c0.044-0.008,0.326-0.078,0.109-0.021c0.072-0.019,0.159-0.016,0.234-0.021c0.167-0.011,0.335-0.013,0.502-0.005
					c0.089,0.004,0.178,0.013,0.267,0.02c0.01,0.001,0.013,0.001,0.02,0.001c0.013,0.003,0.03,0.006,0.057,0.01
					c0.165,0.029,0.328,0.066,0.488,0.113c0.086,0.025,0.17,0.053,0.254,0.084c0.033,0.012,0.066,0.025,0.099,0.038
					c0.006,0.003,0.003,0.001,0.011,0.005c0.002,0.001,0.005,0.001,0.007,0.002c0.003,0.001,0.005,0.002,0.008,0.003
					c-0.003-0.001-0.002-0.001-0.005-0.002c0.396,0.174,0.909,0.122,1.133-0.302C145.084,129.478,145.017,128.891,144.592,128.7z"/>
				<g>
					<path style="fill:#FFA785;" d="M121.984,140.673c1.85,1.959,4.61,2.357,6.165,0.889c1.555-1.468,1.316-4.247-0.534-6.206
						c-1.85-1.959-4.61-2.357-6.165-0.889C119.896,135.936,120.134,138.714,121.984,140.673z"/>
					<path style="fill:#CC7656;" d="M122.638,135.41c0.712-0.432,1.693-0.472,2.623-0.104c0.464,0.183,0.806,0.419,1.048,0.72
						c0.32,0.399,0.433,0.918,0.294,1.353c-0.123,0.391-0.413,0.656-0.67,0.891c-0.185,0.17-0.36,0.33-0.454,0.515
						c-0.143,0.284-0.08,0.666,0.147,0.889c0.227,0.222,0.61,0.276,0.891,0.126c0.166-0.089,0.37-0.026,0.458,0.139
						c0.088,0.164,0.026,0.37-0.138,0.458c-0.18,0.097-0.379,0.15-0.581,0.161c-0.401,0.024-0.812-0.116-1.103-0.4
						c-0.437-0.428-0.553-1.133-0.277-1.678c0.149-0.294,0.389-0.514,0.6-0.708c0.212-0.195,0.413-0.379,0.482-0.598
						c0.07-0.219,0-0.504-0.178-0.726c-0.071-0.089-0.167-0.168-0.271-0.244c-0.336,0.017-0.749,0.145-0.948,0.389
						c-0.223,0.276-0.314,0.661-0.236,1.007c0.041,0.182-0.073,0.363-0.256,0.404c-0.018,0.005-0.037,0.007-0.055,0.008
						c-0.162,0.01-0.312-0.099-0.349-0.263c-0.125-0.551,0.013-1.142,0.37-1.582c0.133-0.163,0.304-0.279,0.485-0.375
						c-0.568-0.118-1.117-0.055-1.532,0.196c-0.512,0.31-0.868,1.055-0.562,1.626c0.088,0.165,0.026,0.37-0.138,0.458
						c-0.165,0.088-0.369,0.026-0.458-0.139C121.385,137.102,121.755,135.946,122.638,135.41z"/>
				</g>
			</g>
		</g>
	</g>
	<g>
		<path style="opacity:0.6;fill:#BCEBE4;" d="M207.207,314.217H42.393c-1.735,0-3.141-1.406-3.141-3.141v-66.614
			c0-1.735,1.406-3.141,3.141-3.141h164.814c1.735,0,3.141,1.406,3.141,3.141v66.614
			C210.348,312.811,208.942,314.217,207.207,314.217z"/>
		<g>
			<g>
				<path style="fill:#F3AE23;" d="M67.201,272.027H48.736c-0.884,0-1.6-0.716-1.6-1.6v-18.466c0-0.884,0.716-1.6,1.6-1.6h18.466
					c0.884,0,1.6,0.717,1.6,1.6v18.466C68.802,271.31,68.085,272.027,67.201,272.027z"/>
				<path style="fill:#F4F6FF;" d="M155.308,252.909h-78.86c-0.704,0-1.274-0.571-1.274-1.275l0,0c0-0.704,0.571-1.274,1.274-1.274
					h78.86c0.704,0,1.274,0.571,1.274,1.274l0,0C156.583,252.339,156.012,252.909,155.308,252.909z"/>
				<path style="fill:#F4F6FF;" d="M201.19,259.282H76.449c-0.704,0-1.274-0.571-1.274-1.275l0,0c0-0.704,0.571-1.275,1.274-1.275
					H201.19c0.704,0,1.275,0.571,1.275,1.275l0,0C202.465,258.711,201.894,259.282,201.19,259.282z"/>
				<path style="fill:#F4F6FF;" d="M201.19,265.654H76.449c-0.704,0-1.274-0.571-1.274-1.275l0,0c0-0.704,0.571-1.275,1.274-1.275
					H201.19c0.704,0,1.275,0.571,1.275,1.275l0,0C202.465,265.084,201.894,265.654,201.19,265.654z"/>
				<path style="fill:#F4F6FF;" d="M201.19,272.027H76.449c-0.704,0-1.274-0.571-1.274-1.275l0,0c0-0.704,0.571-1.274,1.274-1.274
					H201.19c0.704,0,1.275,0.571,1.275,1.274l0,0C202.465,271.456,201.894,272.027,201.19,272.027z"/>
			</g>
			<g>
				<path style="fill:#F3AE23;" d="M67.201,305.178H48.736c-0.884,0-1.6-0.717-1.6-1.6v-18.466c0-0.884,0.716-1.6,1.6-1.6h18.466
					c0.884,0,1.6,0.717,1.6,1.6v18.466C68.802,304.461,68.085,305.178,67.201,305.178z"/>
				<path style="fill:#F4F6FF;" d="M155.308,286.06h-78.86c-0.704,0-1.274-0.571-1.274-1.275l0,0c0-0.704,0.571-1.275,1.274-1.275
					h78.86c0.704,0,1.274,0.571,1.274,1.275l0,0C156.583,285.49,156.012,286.06,155.308,286.06z"/>
				<path style="fill:#F4F6FF;" d="M201.19,292.433H76.449c-0.704,0-1.274-0.571-1.274-1.275l0,0c0-0.704,0.571-1.275,1.274-1.275
					H201.19c0.704,0,1.275,0.571,1.275,1.275l0,0C202.465,291.862,201.894,292.433,201.19,292.433z"/>
				<path style="fill:#F4F6FF;" d="M201.19,298.805H76.449c-0.704,0-1.274-0.571-1.274-1.275l0,0c0-0.704,0.571-1.275,1.274-1.275
					H201.19c0.704,0,1.275,0.571,1.275,1.275l0,0C202.465,298.235,201.894,298.805,201.19,298.805z"/>
				<path style="fill:#F4F6FF;" d="M201.19,305.178H76.449c-0.704,0-1.274-0.571-1.274-1.275l0,0c0-0.704,0.571-1.274,1.274-1.274
					H201.19c0.704,0,1.275,0.571,1.275,1.274l0,0C202.465,304.607,201.894,305.178,201.19,305.178z"/>
			</g>
		</g>
	</g>
	<g>
		<path style="opacity:0.6;fill:#BCEBE4;" d="M107.095,156.783H50.623c-1.926,0-3.487-1.561-3.487-3.487V96.823
			c0-1.926,1.561-3.487,3.487-3.487h56.473c1.926,0,3.487,1.561,3.487,3.487v56.473
			C110.583,155.221,109.021,156.783,107.095,156.783z"/>
		<circle style="fill:#F4F6FF;" cx="78.859" cy="125.059" r="26.324"/>
		<g>
			<g>
				<path style="fill:#127681;" d="M82.091,131.824c0-1.025-0.253-1.83-0.759-2.414c-0.506-0.584-1.395-1.136-2.667-1.655
					c-1.272-0.519-2.447-1.045-3.524-1.577c-1.077-0.532-2.005-1.149-2.784-1.849c-0.779-0.701-1.376-1.512-1.791-2.434
					c-0.415-0.922-0.623-2.038-0.623-3.349c0-2.193,0.74-4.001,2.219-5.422c1.48-1.421,3.452-2.249,5.918-2.482v-4.108h3.095v4.186
					c2.375,0.35,4.241,1.327,5.597,2.93c1.356,1.603,2.035,3.637,2.035,6.103h-6.58c0-1.35-0.26-2.388-0.779-3.115
					c-0.519-0.727-1.259-1.09-2.219-1.09c-0.857,0-1.522,0.269-1.996,0.808c-0.474,0.539-0.711,1.282-0.711,2.229
					c0,0.96,0.273,1.723,0.818,2.287c0.545,0.565,1.421,1.103,2.628,1.616c1.207,0.513,2.346,1.045,3.417,1.596
					c1.071,0.552,1.995,1.178,2.774,1.879c0.779,0.701,1.389,1.519,1.83,2.453c0.441,0.934,0.662,2.057,0.662,3.368
					c0,2.219-0.704,4.03-2.112,5.432c-1.408,1.402-3.326,2.219-5.753,2.453v3.913h-3.095v-3.933c-2.829-0.298-5-1.269-6.512-2.91
					c-1.512-1.642-2.268-3.806-2.268-6.493h6.561c0,1.48,0.328,2.606,0.983,3.378c0.655,0.772,1.587,1.158,2.794,1.158
					c0.883,0,1.577-0.263,2.083-0.788C81.838,133.469,82.091,132.746,82.091,131.824z"/>
			</g>
		</g>
	</g>
</g>
</svg>
